<svg xmlns="http://www.w3.org/2000/svg" viewBox="0 0 64 64" role="img" aria-label="GrumpRolled favicon">
  <rect x="3" y="3" width="58" height="58" rx="16" fill="#141923" stroke="#e8eaed" stroke-width="2.5"/>
  <path d="M45 21c-3.1-3.8-7.8-6-13-6-9.4 0-17 7.6-17 17s7.6 17 17 17c6.6 0 12.2-3.7 15-9.2H31.5v-8.1H52c.2 1 .3 2.1.3 3.2 0 12-9.3 20.8-20.3 20.8C20 55.7 10.3 46 10.3 34S20 12.3 32 12.3c6.5 0 12.1 2.4 16.3 6.9L45 21Z" fill="#f97316"/>
  <path d="M21 24.5 29 21l14 .2-8 4.5z" fill="#f8fafc" opacity=".95"/>
  <path d="M22 46c3-2 6.6-3 10.2-3 3.7 0 7.1 1 9.8 3" fill="none" stroke="#f8fafc" stroke-width="3.2" stroke-linecap="round"/>
</svg>
